<svg width="16" height="16" viewBox="0 0 16 16" fill="none" xmlns="http://www.w3.org/2000/svg">
<path d="M1.66666 9C0.748 9 0 8.252 0 7.33334V2C0 1.08134 0.748 0.333344 1.66666 0.333344H3.66666C4.042 0.333344 4.38731 0.46 4.66666 0.670688V9H1.66666Z" fill="white"/>
<path d="M15.9992 6.50009C15.9992 6.90075 15.8405 7.27409 15.5652 7.54944C15.8765 7.89009 16.0352 8.34678 15.9918 8.82209C15.9138 9.66944 15.1505 10.3334 14.2532 10.3334H10.1352C10.3392 10.9528 10.6658 12.0881 10.6658 13.0001C10.6658 14.4461 9.43718 15.6667 8.66583 15.6667C7.97318 15.6667 7.47849 15.2767 7.45718 15.2607C7.37852 15.1974 7.33252 15.1014 7.33252 15.0001V12.7394L5.41252 8.58009L5.33252 8.53944V1.39409C5.87518 1.13809 6.56183 1.00009 6.99918 1.00009H13.1185C13.8445 1.00009 14.4799 1.48944 14.6292 2.16475C14.7058 2.51209 14.6612 2.86209 14.5085 3.16609C15.0012 3.41409 15.3325 3.92144 15.3325 4.50009C15.3325 4.73609 15.2785 4.96209 15.1759 5.16675C15.6685 5.41475 15.9992 5.92209 15.9992 6.50009Z" fill="white"/>
</svg>
