<svg width="16" height="16" viewBox="0 0 16 16" fill="none" xmlns="http://www.w3.org/2000/svg">
<path d="M1.66666 7C0.748 7 0 7.748 0 8.66666V14C0 14.9187 0.748 15.6667 1.66666 15.6667H3.66666C4.042 15.6667 4.38731 15.54 4.66666 15.3293V7H1.66666Z" fill="white"/>
<path d="M15.9992 9.49991C15.9992 9.09925 15.8405 8.72591 15.5652 8.45056C15.8765 8.10991 16.0352 7.65322 15.9918 7.17791C15.9138 6.33056 15.1505 5.66656 14.2532 5.66656H10.1352C10.3392 5.04722 10.6658 3.91191 10.6658 2.99991C10.6658 1.55391 9.43718 0.333252 8.66583 0.333252C7.97318 0.333252 7.47849 0.723252 7.45718 0.739252C7.37852 0.802596 7.33252 0.898596 7.33252 0.999908V3.26056L5.41252 7.41991L5.33252 7.46056V14.6059C5.87518 14.8619 6.56183 14.9999 6.99918 14.9999H13.1185C13.8445 14.9999 14.4799 14.5106 14.6292 13.8353C14.7058 13.4879 14.6612 13.1379 14.5085 12.8339C15.0012 12.5859 15.3325 12.0786 15.3325 11.4999C15.3325 11.2639 15.2785 11.0379 15.1759 10.8333C15.6685 10.5853 15.9992 10.0779 15.9992 9.49991Z" fill="white"/>
</svg>
