<svg width="215" height="172" viewBox="0 0 215 172" fill="none" xmlns="http://www.w3.org/2000/svg">
<circle cx="130.593" cy="101.926" r="70.0741" fill="#6B93C0"/>
<g clip-path="url(#clip0_6691_65198)">
<path d="M108.402 98.4221C105.184 98.4221 102.563 101.043 102.563 104.262V122.948C102.563 126.167 105.184 128.788 108.402 128.788H115.41C116.725 128.788 117.935 128.344 118.914 127.606V98.4221H108.402Z" fill="white"/>
<path d="M158.62 107.181C158.62 105.778 158.064 104.47 157.099 103.505C158.19 102.311 158.746 100.711 158.594 99.0459C158.321 96.077 155.646 93.7506 152.502 93.7506H138.074C138.789 91.5806 139.933 87.6028 139.933 84.4074C139.933 79.341 135.629 75.0642 132.926 75.0642C130.499 75.0642 128.766 76.4307 128.691 76.4867C128.416 76.7087 128.254 77.045 128.254 77.4V85.3206L121.527 99.8938L121.247 100.036V125.071C123.148 125.968 125.554 126.452 127.087 126.452H148.527C151.071 126.452 153.297 124.737 153.82 122.371C154.088 121.154 153.932 119.928 153.397 118.863C155.123 117.994 156.284 116.216 156.284 114.189C156.284 113.362 156.095 112.57 155.735 111.853C157.461 110.984 158.62 109.207 158.62 107.181Z" fill="white"/>
</g>
<circle cx="38.6204" cy="70.4722" r="38.6204" fill="#A8C3E1"/>
<g clip-path="url(#clip1_6691_65198)">
<path d="M26.3912 72.4033C24.6173 72.4033 23.1729 70.9589 23.1729 69.185V58.8862C23.1729 57.1122 24.6173 55.6678 26.3912 55.6678H30.2532C30.978 55.6678 31.6448 55.9124 32.1843 56.3193V72.4033H26.3912Z" fill="white"/>
<path d="M54.0677 67.5756C54.0677 68.3493 53.7614 69.0702 53.2297 69.6019C53.8309 70.2597 54.1372 71.1416 54.0535 72.0595C53.9029 73.6957 52.4289 74.9779 50.6962 74.9779H42.7442C43.1382 76.1739 43.7689 78.3662 43.7689 80.1272C43.7689 82.9195 41.3964 85.2766 39.9069 85.2766C38.5694 85.2766 37.6141 84.5235 37.573 84.4926C37.4211 84.3703 37.3323 84.1849 37.3323 83.9893V79.6239L33.6247 71.5921L33.4702 71.5136V57.7158C34.5181 57.2215 35.844 56.955 36.6886 56.955H48.5051C49.907 56.955 51.1339 57.9 51.4222 59.204C51.5702 59.8747 51.484 60.5506 51.1892 61.1376C52.1406 61.6165 52.7804 62.5962 52.7804 63.7136C52.7804 64.1693 52.6761 64.6057 52.4779 65.0009C53.4292 65.4798 54.0677 66.4595 54.0677 67.5756Z" fill="white"/>
</g>
<circle cx="191.908" cy="140.944" r="23.0926" fill="#C3D6EC"/>
<path d="M183.187 132.224C183.518 131.893 183.967 131.707 184.434 131.707C184.902 131.707 185.351 131.893 185.681 132.224L191.919 138.461L198.156 132.224C198.488 131.902 198.934 131.725 199.396 131.729C199.859 131.733 200.301 131.918 200.628 132.245C200.955 132.572 201.141 133.015 201.145 133.477C201.149 133.94 200.971 134.385 200.65 134.718L194.413 140.955L200.65 147.192C200.971 147.525 201.149 147.97 201.145 148.433C201.141 148.895 200.955 149.338 200.628 149.665C200.301 149.992 199.859 150.177 199.396 150.181C198.934 150.185 198.488 150.008 198.156 149.686L191.919 143.449L185.681 149.686C185.349 150.008 184.903 150.185 184.441 150.181C183.978 150.177 183.536 149.992 183.209 149.665C182.882 149.338 182.696 148.895 182.692 148.433C182.688 147.97 182.866 147.525 183.187 147.192L189.424 140.955L183.187 134.718C182.857 134.387 182.671 133.939 182.671 133.471C182.671 133.003 182.857 132.554 183.187 132.224Z" fill="white"/>
<circle cx="183.148" cy="31.8519" r="31.8519" fill="#A8C3E1"/>
<rect x="167.222" y="28.6667" width="31.8519" height="6.37037" rx="2" fill="white"/>
<defs>
<clipPath id="clip0_6691_65198">
<rect width="56.0593" height="56.0593" fill="white" transform="translate(102.563 73.8962)"/>
</clipPath>
<clipPath id="clip1_6691_65198">
<rect width="30.8963" height="30.8963" fill="white" transform="matrix(1 0 0 -1 23.1729 85.9204)"/>
</clipPath>
</defs>
</svg>
